<svg id="Layer_1" data-name="Layer 1" xmlns="http://www.w3.org/2000/svg" viewBox="0 0 255.12 255.12"><defs><style>.cls-1{fill:#030303;}</style></defs><path class="cls-1" d="M188.63,96l-24.54-31.1a5.47,5.47,0,0,0-4.29-2.1H95.34a5.47,5.47,0,0,0-4.29,2.1L66.53,96a5.5,5.5,0,0,0-1.19,3.41v87.49a5.45,5.45,0,0,0,5.46,5.46H184.32a5.47,5.47,0,0,0,5.46-5.46V99.46A5.31,5.31,0,0,0,188.63,96ZM133,73.72h24.11l16.33,20.73H133Zm-35,0h24.11V94.45H81.67ZM178.84,181.4H76.28v-76H178.84Z"/><path class="cls-1" d="M150.53,131.28a5.49,5.49,0,0,1-1.62,3.88l-23.75,23.75a5.5,5.5,0,0,1-7.74,0L106.19,147.7a5.46,5.46,0,0,1,0-7.74,5.59,5.59,0,0,1,7.73,0l7.36,7.36,19.93-19.94a5.44,5.44,0,0,1,3.84-1.6h.07a5.35,5.35,0,0,1,3.83,1.67A5.42,5.42,0,0,1,150.53,131.28Z"/></svg>