<svg id="Layer_1" data-name="Layer 1" xmlns="http://www.w3.org/2000/svg" viewBox="0 0 255.12 255.12"><defs><style>.cls-1{fill:#030303;}</style></defs><path class="cls-1" d="M62.16,108.46h-.67A3.44,3.44,0,0,1,58.06,105v-.67A4.12,4.12,0,0,0,62.16,108.46Z"/><path class="cls-1" d="M62.16,100.26a4.12,4.12,0,0,0-4.1,4.1v-.67a3.42,3.42,0,0,1,3.43-3.43Z"/><path class="cls-1" d="M203.47,102.85a24.24,24.24,0,0,0-18.08-7.59h-17.2V86a4.1,4.1,0,0,0-4.1-4.1H82.23A4.11,4.11,0,0,0,78.12,86v14.29h-16a4.1,4.1,0,1,0,0,8.2h20.1a4.12,4.12,0,0,0,4.1-4.1V90.07H160v64.28H121.42a3,3,0,0,0-.52,0,13.75,13.75,0,0,0-25.56.07,3.77,3.77,0,0,0-.88-.1h-8.1V140a4.11,4.11,0,0,0-4.1-4.1H62.16a4.1,4.1,0,1,0,0,8.2h16v14.27a4.12,4.12,0,0,0,4.11,4.11H94.69a13.77,13.77,0,0,0,26.86,0h49.14a13.77,13.77,0,0,0,26.86,0h9.17a4.11,4.11,0,0,0,4.1-4.11V124.34C210.82,115.5,208.25,108,203.47,102.85Zm-95.35,62.24a5.58,5.58,0,1,1,5.58-5.58A5.58,5.58,0,0,1,108.12,165.09Zm76,0a5.58,5.58,0,1,1,5.58-5.58A5.57,5.57,0,0,1,184.12,165.09Zm18.5-10.74h-5.75a13.74,13.74,0,0,0-25.49,0h-3.15V103.46h17.19c10.78,0,17.2,7.84,17.2,20.91Z"/><path class="cls-1" d="M62.16,144.14h-.67a3.42,3.42,0,0,1-3.43-3.43V140A4.12,4.12,0,0,0,62.16,144.14Z"/><path class="cls-1" d="M58.06,140v-.67a3.44,3.44,0,0,1,3.43-3.43h.67A4.11,4.11,0,0,0,58.06,140Z"/><path class="cls-1" d="M138.22,122.24a3.32,3.32,0,0,1-1,2.56l-11.32,11.31a3.43,3.43,0,0,1-4.85,0l-.94-.93a3.42,3.42,0,0,1,0-4.86l3.82-3.82H47.73a3.44,3.44,0,0,1-3.44-3.43v-1.34a3.44,3.44,0,0,1,3.44-3.43h76.55l-4.16-4.15a3.4,3.4,0,0,1,0-4.84l.94-1a3.43,3.43,0,0,1,4.85,0l11.32,11.31a3.35,3.35,0,0,1,1,2.57,3.32,3.32,0,0,0-1-2.3l-.95-.94a3.44,3.44,0,0,0-3.82-.7H134a3.44,3.44,0,0,1,3.45,3.43v1.34a3.44,3.44,0,0,1-.42,1.64l.17-.18A3.32,3.32,0,0,0,138.22,122.24Z"/><path class="cls-1" d="M138.22,122.24a3.32,3.32,0,0,1-1,2.29l-.17.18a3.44,3.44,0,0,0,.42-1.64v-1.34A3.44,3.44,0,0,0,134,118.3h-1.57a3.44,3.44,0,0,1,3.82.7l.95.94A3.32,3.32,0,0,1,138.22,122.24Z"/><path class="cls-1" d="M138.22,122.24a3.32,3.32,0,0,1-1,2.29l-.17.18a3.44,3.44,0,0,0,.42-1.64v-1.34A3.44,3.44,0,0,0,134,118.3h-1.57a3.44,3.44,0,0,1,3.82.7l.95.94A3.32,3.32,0,0,1,138.22,122.24Z"/></svg>