<svg id="Layer_1" data-name="Layer 1" xmlns="http://www.w3.org/2000/svg" viewBox="0 0 255.12 255.12"><defs><style>.cls-1{fill:#fff;}</style></defs><path class="cls-1" d="M207.64,147.93a6.75,6.75,0,0,0-8.52-4.29l-67.32,22.3A20.84,20.84,0,0,0,115,157.57l-26.9-80.8a6.82,6.82,0,0,0-3.38-3.91l-27.86-14a6.86,6.86,0,0,0-5.14-.38,6.76,6.76,0,0,0-.91,12.42L76.24,83.65l26,78.31a21.29,21.29,0,0,0-2.66,2.45A21,21,0,0,0,115,199.65h.86A21.07,21.07,0,0,0,136,178.77l67.35-22.3A6.81,6.81,0,0,0,208,150,7.23,7.23,0,0,0,207.64,147.93Zm-85.07,30.41a7.56,7.56,0,0,1-15.11.6,7.48,7.48,0,0,1,2-5.42,7.27,7.27,0,0,1,5.13-2.4H115A7.53,7.53,0,0,1,122.57,178.34Z"/><path class="cls-1" d="M200.13,126.21l-21.89-66.1a6.63,6.63,0,0,0-3.38-3.91,6.55,6.55,0,0,0-5.13-.38l-66.68,22.1a6.72,6.72,0,0,0-4.29,8.54l21.89,66.08a6.75,6.75,0,0,0,8.49,4.29l66.68-22.11a6.8,6.8,0,0,0,4.31-8.51Zm-52.89-26.4a6.77,6.77,0,0,0,4.31-8.53L147,77.54l20.57-6.83,17.67,53.34-53.92,17.87-17.67-53.3,20.57-6.86,4.56,13.76a6.69,6.69,0,0,0,6.37,4.63A6.15,6.15,0,0,0,147.24,99.81Z"/></svg>