<svg id="Layer_1" data-name="Layer 1" xmlns="http://www.w3.org/2000/svg" xmlns:xlink="http://www.w3.org/1999/xlink" viewBox="0 0 255.12 255.12"><defs><style>.cls-1{fill:url(#linear-gradient);}</style><linearGradient id="linear-gradient" x1="47.15" y1="127.56" x2="207.97" y2="127.56" gradientUnits="userSpaceOnUse"><stop offset="0" stop-color="#027961"/><stop offset="0.48" stop-color="#22ad73"/><stop offset="1" stop-color="#6abc71"/></linearGradient></defs><path class="cls-1" d="M199.08,97.61a29.47,29.47,0,0,0-21.91-9.2H156.33V77.15a5,5,0,0,0-5-5H52.12a5,5,0,0,0-5,5V165a5,5,0,0,0,5,5H67.24a16.68,16.68,0,0,0,32.55,0h59.57a16.68,16.68,0,0,0,32.55,0H203a5,5,0,0,0,5-5V123.66C208,113,204.86,103.9,199.08,97.61ZM83.52,173a6.75,6.75,0,1,1,6.74-6.76A6.76,6.76,0,0,1,83.52,173Zm62.91-13H99.62a3.13,3.13,0,0,0-.61,0,16.67,16.67,0,0,0-31,.08,5,5,0,0,0-1.09-.12H57.13V142.68c0-.21,0-.42,0-.64v-42c0-.21,0-.42,0-.64V82.12h89.3Zm29.2,13a6.75,6.75,0,1,1,6.74-6.76A6.76,6.76,0,0,1,175.63,173ZM198,160h-6.95a16.65,16.65,0,0,0-30.89,0h-3.82V98.36h20.84c13,0,20.82,9.49,20.82,25.34Z"/></svg>