<svg id="Layer_1" data-name="Layer 1" xmlns="http://www.w3.org/2000/svg" viewBox="0 0 255.12 255.12"><defs><style>.cls-1{fill:#fff;}</style></defs><path class="cls-1" d="M193.56,198.86H153.68V149.42a13.06,13.06,0,0,1,5.08-10.27,51,51,0,0,0,20.09-40.76A53.48,53.48,0,0,0,173.08,75,51.87,51.87,0,0,0,158,57.22a8.87,8.87,0,0,0-14.17,7.11V83.66a10.42,10.42,0,0,1-10.39,10.39H121.55a10.43,10.43,0,0,1-10.39-10.39V64.36A8.87,8.87,0,0,0,97,57.25,51.12,51.12,0,0,0,76.24,98.47a51,51,0,0,0,20.09,40.71,13,13,0,0,1,5.08,10.26v49.42H61.54a4.94,4.94,0,0,0-4.95,5v2.59a4.94,4.94,0,0,0,4.95,5h132a5,5,0,0,0,5-5v-2.59A5,5,0,0,0,193.56,198.86ZM103.9,129.3A38.6,38.6,0,0,1,88.69,98.47,39.34,39.34,0,0,1,98.82,72.33V83.71a22.85,22.85,0,0,0,22.81,22.81h11.83a22.84,22.84,0,0,0,22.81-22.81V72.31a39.27,39.27,0,0,1,10.14,26.13,38.42,38.42,0,0,1-15.24,30.83,25.64,25.64,0,0,0-9.91,20.12v49.47H113.83V149.42A25.6,25.6,0,0,0,103.9,129.3Z"/></svg>