<svg xmlns="http://www.w3.org/2000/svg" width="352" height="69.553" viewBox="0 0 352 69.553"><defs><style>.a,.b{fill:#fff;}.b{stroke:#dd0013;stroke-miterlimit:10;}</style></defs><g transform="translate(-139 -48)"><g transform="translate(139 48)"><g transform="translate(89.029 13.153)"><path class="a" d="M856.7,694.88l-3.43-7.761H830.665l-3.374,7.761H815.649l18.559-41.841h15.523l19.4,41.841Zm-7.311-16.365L841.8,661.475l-7.366,17.039Z" transform="translate(-815.649 -652.363)"/><path class="a" d="M883.733,695.6q-8.715,0-14.454-3.375a17.952,17.952,0,0,1-7.592-7.985,20.861,20.861,0,0,1-2.193-9.561v-1.52a20.218,20.218,0,0,1,2.138-9.278,18.445,18.445,0,0,1,7.536-7.987q5.9-3.319,14.79-3.318h1.912q12.485,0,18.84,4.837a12.266,12.266,0,0,1,5.174,10.011v.112H897.905l-.675-1.349q-1.182-2.195-5.736-3.487a25.187,25.187,0,0,0-6.525-.674q-7.142,0-10.572,3.6a10.925,10.925,0,0,0-2.868,7.818v.73a13.051,13.051,0,0,0,.73,4.3,10.052,10.052,0,0,0,2.306,3.739q3.767,3.938,10.8,3.937,6.3,0,9.785-2.812a7.793,7.793,0,0,0,1.912-2.194,9.15,9.15,0,0,0,.563-1.517h-11.36v-7.481h24.127v22.834h-9.224c-.037-.486,0-1.451,0-2.98v-4.4a29.718,29.718,0,0,1-2.755,3.05,18.906,18.906,0,0,1-7.366,4.106,21.613,21.613,0,0,1-6.411.844Z" transform="translate(-806.573 -652.46)"/><path class="a" d="M951.155,678.43a10.432,10.432,0,0,1,2.362,7.171v4.331a15.2,15.2,0,0,0,.226,3.261,6.873,6.873,0,0,0,.45,1.406v.281H942.214a7.483,7.483,0,0,1-.225-.9,8.561,8.561,0,0,1-.169-2.024v-3.43q0-4.161-1.772-6.018T934,680.651H918.931V694.88H907.346V653.038h28.175q10.573,0,14.847,3.88a9.447,9.447,0,0,1,2.869,7.311v.564a9.2,9.2,0,0,1-2.39,6.439,11.972,11.972,0,0,1-6.439,3.515A12.431,12.431,0,0,1,951.155,678.43Zm-32.224-7.283h16.141a7.07,7.07,0,0,0,4.78-1.35,3.864,3.864,0,0,0,1.238-3.092v-.113a3.869,3.869,0,0,0-1.238-3.094q-1.4-1.235-4.78-1.236H918.931Z" transform="translate(-796.668 -652.363)"/><path class="a" d="M976.8,652.479a34.561,34.561,0,0,1,11.923,1.827,20.634,20.634,0,0,1,7.985,5.033,18.136,18.136,0,0,1,3.966,6.468,21.925,21.925,0,0,1,1.264,7.311v1.688a22.011,22.011,0,0,1-1.264,7.283,18.1,18.1,0,0,1-3.966,6.5,20.965,20.965,0,0,1-8.042,5.2A33.4,33.4,0,0,1,976.8,695.67h-2.474q-9.054,0-15.185-3.43a18.016,18.016,0,0,1-7.76-8.042,20.478,20.478,0,0,1-2.194-9.392v-1.687a20.477,20.477,0,0,1,2.194-9.391,17.8,17.8,0,0,1,7.76-7.93q6.074-3.317,15.185-3.318Zm13.1,21.089a10.9,10.9,0,0,0-2.756-7.7q-3.543-3.825-11.586-3.825-7.876,0-11.529,3.825a10.764,10.764,0,0,0-2.812,7.7v.788a12.9,12.9,0,0,0,.676,4.105,9.421,9.421,0,0,0,2.193,3.6q3.712,4,11.473,3.993,7.984,0,11.586-3.993a10.9,10.9,0,0,0,2.756-7.7Z" transform="translate(-788.008 -652.479)"/><path class="a" d="M1018.078,695.7q-9.166,0-14.4-2.474a13.034,13.034,0,0,1-6.186-5.625,12.339,12.339,0,0,1-1.294-5.792v-.619h12.6a5.218,5.218,0,0,0,1.686,3.712q2.3,2.309,8.156,2.307h.393q5.79,0,8.211-1.631a3.741,3.741,0,0,0,1.63-3.375,3.236,3.236,0,0,0-1.686-3.036q-2.024-1.068-6.862-1.3l-5.567-.168q-9.617-.338-14.172-3.937a9.975,9.975,0,0,1-3.937-8.268v-.506q0-5.678,3.937-8.66,5-3.711,16.871-3.713h1.912q12.371,0,17.492,4.051,3.541,2.868,3.541,8.211v.617h-12.428a6.651,6.651,0,0,0-.534-1.658,3.758,3.758,0,0,0-1.209-1.377q-2.363-1.573-7.649-1.575h-.562q-5.287,0-7.366.956a3.052,3.052,0,0,0-.226,5.455q1.856,1.07,6.523,1.295l5.793.223q10.515.395,14.847,3.768,3.655,2.814,3.655,8.492v.675q0,5.962-3.711,9.28-5.231,4.667-17.827,4.667Z" transform="translate(-778.276 -652.45)"/><path class="b" d="M894.02,687.7" transform="translate(-799.427 -645.188)"/></g><path class="a" d="M809.833,680.862h-22.3L803.3,696.625a1.469,1.469,0,0,1,.085,1.979c-.676.812-1.392,1.6-2.139,2.343s-1.523,1.457-2.33,2.132a1.469,1.469,0,0,1-1.982-.081l-15.773-15.773v22.31a1.468,1.468,0,0,1-1.341,1.458q-1.564.143-3.164.142t-3.155-.141a1.467,1.467,0,0,1-1.341-1.458V687.224L756.383,703a1.45,1.45,0,0,1-1.946.108q-1.072-.89-2.071-1.872c-.2-.193-.395-.387-.589-.589q-.972-1-1.866-2.07a1.449,1.449,0,0,1,.106-1.949l15.774-15.767h-22.3a1.468,1.468,0,0,1-1.458-1.341q-.143-1.564-.142-3.164t.142-3.162a1.468,1.468,0,0,1,1.458-1.342h22.3l-15.771-15.771a1.469,1.469,0,0,1-.084-1.978q1.01-1.215,2.132-2.336c.747-.747,1.53-1.463,2.344-2.139a1.469,1.469,0,0,1,1.978.083l15.771,15.771v-22.3a1.467,1.467,0,0,1,1.341-1.458q1.557-.141,3.155-.141t3.164.141a1.468,1.468,0,0,1,1.341,1.458v22.3l15.768-15.767a1.466,1.466,0,0,1,1.979-.082q1.217,1.014,2.337,2.134t2.135,2.337a1.471,1.471,0,0,1-.082,1.981l-15.768,15.767h22.3a1.468,1.468,0,0,1,1.458,1.342q.143,1.562.142,3.162t-.142,3.164A1.468,1.468,0,0,1,809.833,680.862Z" transform="translate(-741.888 -641.582)"/></g></g></svg>